<?xml version="1.0" encoding="UTF-8" standalone="no"?>
<!DOCTYPE svg PUBLIC "-//W3C//DTD SVG 1.1//EN" "http://www.w3.org/Graphics/SVG/1.1/DTD/svg11.dtd">
<svg width="100%" height="100%" viewBox="0 0 250 114" version="1.1" xmlns="http://www.w3.org/2000/svg" xmlns:xlink="http://www.w3.org/1999/xlink" xml:space="preserve" xmlns:serif="http://www.serif.com/" style="fill-rule:evenodd;clip-rule:evenodd;stroke-linejoin:round;stroke-miterlimit:2;">
    <g transform="matrix(1,0,0,1,-412.697,-465.25)">
        <g transform="matrix(0.351549,0,0,0.378553,-4395.54,-6350.7)">
            <g id="Option-1---Earring-Punch" serif:id="Option 1 - Earring Punch">
                <g id="Logo-1" serif:id="Logo 1">
                    <g transform="matrix(0.894113,0,0,0.894113,2301.63,2484.96)">
                        <g transform="matrix(0.896241,0,0,0.791223,5283.03,6789.67)">
                            <path d="M8505.09,13590.3L8502.25,13589C8484.37,13611 8459.99,13619.9 8438.04,13619.9C8400.25,13619.9 8369.77,13595.5 8369.77,13536.2C8369.77,13480.5 8392.93,13461.4 8413.25,13461.4C8425.44,13461.4 8436.82,13473.6 8436.82,13487.5C8436.82,13503.3 8430.32,13514.3 8430.32,13524C8430.32,13546.8 8447.39,13560.6 8463.64,13560.6C8484.37,13560.6 8497.37,13544.3 8497.37,13524C8497.37,13492.3 8465.68,13457 8413.25,13457C8350.67,13457 8301.09,13506.1 8301.09,13569.1C8301.09,13632.1 8347.01,13673.2 8403.09,13673.2C8453.89,13673.2 8485.59,13645.1 8505.09,13590.3Z" style="fill:rgb(54,51,49);fill-rule:nonzero;"/>
                        </g>
                        <g transform="matrix(0.896241,0,0,0.791223,5273.03,6789.67)">
                            <path d="M8551.42,13427.7L8551.42,13631.3C8551.42,13654.1 8542.89,13663 8519.32,13663L8519.32,13668.3L8657.89,13668.3L8657.89,13663C8634.32,13663 8625.79,13654.1 8625.79,13631.3L8625.79,13358.6C8625.79,13358.6 8604.66,13367.6 8573.37,13377.3C8542.48,13387.1 8519.32,13391.1 8519.32,13391.1L8519.32,13396C8542.89,13396 8551.42,13405 8551.42,13427.7Z" style="fill:rgb(54,51,49);fill-rule:nonzero;"/>
                        </g>
                        <g transform="matrix(0.896241,0,0,0.791223,5267.03,6789.67)">
                            <path d="M8916.35,13640.2L8914.32,13636.6C8906.19,13641.1 8900.5,13642.7 8895.62,13642.7C8886.68,13642.7 8879.77,13636.6 8879.77,13623.2L8879.77,13526.1C8879.77,13472.4 8862.3,13457 8823.69,13457C8786.31,13457 8745.67,13470.8 8724.13,13480.5C8692.03,13495.6 8674.55,13512.6 8674.55,13533.4C8674.55,13552.1 8687.56,13562.6 8702.59,13562.6C8725.76,13562.6 8744.45,13545.6 8746.08,13516.7C8748.11,13486.2 8760.3,13467.9 8780.62,13467.9C8793.62,13467.9 8805.81,13477.7 8805.81,13507.8L8805.81,13546L8758.67,13562.2C8710.72,13578.9 8674.15,13597.2 8674.15,13628.1C8674.15,13654.1 8696.9,13673.2 8732.67,13673.2C8758.67,13673.2 8785.09,13664.6 8805.81,13635.8C8810.28,13661.8 8824.91,13673.2 8848.08,13673.2C8868.8,13673.2 8892.78,13659.3 8916.35,13640.2ZM8805.81,13613.8C8805.81,13633.7 8794.43,13645.5 8780.62,13645.5C8769.24,13645.5 8757.05,13637.4 8757.05,13606.9C8757.05,13582.5 8768.83,13565.1 8792.4,13555.7C8798.9,13553.3 8805.81,13551.3 8805.81,13551.3L8805.81,13613.8Z" style="fill:rgb(54,51,49);fill-rule:nonzero;"/>
                        </g>
                        <g transform="matrix(0.896241,0,0,0.791223,5264.03,6789.67)">
                            <path d="M9065.08,13668.3L9065.08,13663C9041.51,13663 9032.98,13654.1 9032.98,13631.3L9032.98,13457C9032.98,13457 9011.84,13466.3 8980.55,13476.1C8949.67,13485.4 8926.51,13489.5 8926.51,13489.5L8926.51,13494.8C8950.08,13494.8 8958.61,13503.7 8958.61,13526.5L8958.61,13631.3C8958.61,13654.1 8950.08,13663 8926.51,13663L8926.51,13668.3L9065.08,13668.3ZM8994.37,13357.4C8971.21,13357.4 8952.51,13376.1 8952.51,13399.3C8952.51,13422.4 8971.21,13441.1 8994.37,13441.1C9017.53,13441.1 9036.63,13422.4 9036.63,13399.3C9036.63,13376.1 9017.53,13357.4 8994.37,13357.4Z" style="fill:rgb(54,51,49);fill-rule:nonzero;"/>
                        </g>
                        <g transform="matrix(0.896241,0,0,0.791223,5257.03,6789.67)">
                            <path d="M9215.44,13668.3L9215.44,13663C9191.87,13663 9183.34,13654.1 9183.34,13631.3L9183.34,13457C9183.34,13457 9162.2,13466.3 9130.91,13476.1C9100.03,13485.4 9076.86,13489.5 9076.86,13489.5L9076.86,13494.8C9100.43,13494.8 9108.97,13503.7 9108.97,13526.5L9108.97,13631.3C9108.97,13654.1 9100.43,13663 9076.86,13663L9076.86,13668.3L9215.44,13668.3ZM9144.73,13357.4C9121.57,13357.4 9102.87,13376.1 9102.87,13399.3C9102.87,13422.4 9121.57,13441.1 9144.73,13441.1C9167.89,13441.1 9186.99,13422.4 9186.99,13399.3C9186.99,13376.1 9167.89,13357.4 9144.73,13357.4Z" style="fill:rgb(54,51,49);fill-rule:nonzero;"/>
                        </g>
                        <g transform="matrix(0.633732,0,0,0.836292,4898.97,2508.62)">
                            <rect x="13373.2" y="18045.8" width="55.803" height="4.932" style="fill:rgb(54,51,49);"/>
                        </g>
                    </g>
                    <g transform="matrix(0.155942,0,0,0.144818,12176.8,15830.8)">
                        <path d="M10524.7,17050.3L10524.7,17077.1L10552.3,17077.1C10568.8,17077.1 10581.4,17072.5 10590.1,17063.3C10598.8,17054.1 10603.1,17040.7 10603.1,17023.1L10603.1,16796.7L10573.4,16796.7L10573.4,17019.4C10573.4,17030.3 10571.5,17038.1 10567.5,17043C10563.6,17047.9 10557,17050.3 10547.8,17050.3L10524.7,17050.3Z" style="fill:rgb(54,51,49);fill-rule:nonzero;"/>
                        <path d="M10814.8,16823.6L10955.4,16823.6L10955.4,16796.7L10785.1,16796.7L10785.1,17077.1L10955.4,17077.1L10955.4,17050.3L10814.8,17050.3L10814.8,16947.9L10935.1,16947.9L10935.1,16921.1L10814.8,16921.1L10814.8,16823.6Z" style="fill:rgb(54,51,49);fill-rule:nonzero;"/>
                        <path d="M11409.3,16796.7L11381.7,16796.7L11326.8,17029.2L11269.9,16796.7L11232.2,16796.7L11177.3,17029.2L11120.4,16796.7L11091.6,16796.7L11163.5,17077.1L11189.9,17077.1L11250.4,16833.7L11312.6,17077.1L11339,17077.1L11409.3,16796.7Z" style="fill:rgb(54,51,49);fill-rule:nonzero;"/>
                        <path d="M11588.1,16823.6L11728.7,16823.6L11728.7,16796.7L11558.5,16796.7L11558.5,17077.1L11728.7,17077.1L11728.7,17050.3L11588.1,17050.3L11588.1,16947.9L11708.4,16947.9L11708.4,16921.1L11588.1,16921.1L11588.1,16823.6Z" style="fill:rgb(54,51,49);fill-rule:nonzero;"/>
                        <path d="M11894.5,16796.7L11894.5,17077.1L12064,17077.1L12064,17050.3L11924.2,17050.3L11924.2,16796.7L11894.5,16796.7Z" style="fill:rgb(54,51,49);fill-rule:nonzero;"/>
                        <path d="M12223.3,16796.7L12223.3,17077.1L12392.8,17077.1L12392.8,17050.3L12253,17050.3L12253,16796.7L12223.3,16796.7Z" style="fill:rgb(54,51,49);fill-rule:nonzero;"/>
                        <path d="M12581.7,16823.6L12722.3,16823.6L12722.3,16796.7L12552.1,16796.7L12552.1,17077.1L12722.3,17077.1L12722.3,17050.3L12581.7,17050.3L12581.7,16947.9L12702,16947.9L12702,16921.1L12581.7,16921.1L12581.7,16823.6Z" style="fill:rgb(54,51,49);fill-rule:nonzero;"/>
                        <path d="M12985.3,16954L13048.7,17077.1L13082.8,17077.1L13016.6,16951.2C13035.5,16946.8 13050.3,16938.2 13060.8,16925.2C13071.4,16912.2 13076.7,16895.6 13076.7,16875.6C13076.7,16850.4 13069.2,16830.9 13054.1,16817.3C13039.1,16803.6 13018.4,16796.7 12992.2,16796.7L12888.1,16796.7L12888.1,17077.1L12917.8,17077.1L12917.8,16954L12985.3,16954ZM12917.8,16928.4L12917.8,16823.6L12989.7,16823.6C13008.2,16823.6 13022.3,16828 13032.2,16836.8C13042.1,16845.6 13047,16858.6 13047,16876C13047,16892.8 13042,16905.7 13032,16914.8C13022,16923.9 13007.9,16928.4 12989.7,16928.4L12917.8,16928.4Z" style="fill:rgb(54,51,49);fill-rule:nonzero;"/>
                        <path d="M13329.1,16959.7L13412.8,16796.7L13380.7,16796.7L13314,16931.3L13247.8,16796.7L13215.7,16796.7L13299.4,16959.3L13299.4,17077.1L13329.1,17077.1L13329.1,16959.7Z" style="fill:rgb(54,51,49);fill-rule:nonzero;"/>
                    </g>
                </g>
            </g>
        </g>
    </g>
</svg>
